Coordinates
version=1
nRows=14
nColumns=46
inDegrees=yes

Units are S.I. units (second, meters, Newtons, ...)
Angles are in degrees.

endheader
time	pelvis_tilt	pelvis_list	pelvis_rotation	pelvis_tx	pelvis_ty	pelvis_tz	bb_angle	bb_tx	bb_ty	bb_tz	hip_flexion_r	hip_adduction_r	hip_rotation_r	knee_angle_r	knee_angle_r_beta	ankle_angle_r	subtalar_angle_r	mtp_angle_r	crank_angle_r	hip_flexion_l	hip_adduction_l	hip_rotation_l	knee_angle_l	knee_angle_l_beta	ankle_angle_l	subtalar_angle_l	mtp_angle_l	crank_angle_l	lumbar_extension	lumbar_bending	lumbar_rotation	arm_flex_r	arm_add_r	arm_rot_r	elbow_flex_r	pro_sup_r	wrist_flex_r	wrist_dev_r	arm_flex_l	arm_add_l	arm_rot_l	elbow_flex_l	pro_sup_l	wrist_flex_l	wrist_dev_l
      5.00000000	    -36.33904382	      7.27974840	      8.78139055	      0.26702059	      1.03735453	     -0.17367834	      0.00000000	      0.50000000	      0.00000000	      0.25000000	     36.01761148	    -13.28847488	    -11.08353084	     15.79295969	      0.27563915	    -26.18768932	      3.97547205	      0.00000000	      0.00000000	     92.25948558	     -3.96015728	      0.81938192	    106.42657069	      1.85749407	     12.70239803	      3.69008473	      0.00000000	      0.00000000	    -36.74288688	     -5.56465764	     -6.60056954	     36.81402091	     -9.53881159	     13.63046920	     83.97528738	     49.39255311	      0.00000000	      0.00000000	     48.41454887	    -25.04829346	     23.33731684	     76.79115923	     49.89397776	      0.00000000	      0.00000000
      5.00500000	    -36.64603716	      6.96927624	      8.69518241	      0.26682268	      1.03952398	     -0.17456311	      0.00000000	      0.50000000	      0.00000000	      0.25000000	     35.89641890	    -13.05918317	    -11.42007765	     15.37538301	      0.26835106	    -27.15006245	      4.34806786	      0.00000000	      0.00000000	     92.48214156	     -3.85034615	      0.85109775	    105.46793635	      1.84076274	     13.20248878	      3.35102684	      0.00000000	      0.00000000	    -36.66160485	     -5.31952460	     -6.64582233	     37.14791431	     -9.25880450	     13.59442502	     83.80261115	     49.36723185	      0.00000000	      0.00000000	     48.39703744	    -25.09228353	     23.17334265	     76.90340863	     49.89683228	      0.00000000	      0.00000000
      5.01000000	    -36.85339036	      6.71389845	      8.57671105	      0.26669826	      1.04186263	     -0.17518931	      0.00000000	      0.50000000	      0.00000000	      0.25000000	     35.74996224	    -12.82807465	    -11.66946139	     15.14967444	      0.26441170	    -27.71429338	      4.47008223	      0.00000000	      0.00000000	     92.49215879	     -3.79177080	      0.84359757	    104.38821366	      1.82191803	     13.57942095	      3.06234195	      0.00000000	      0.00000000	    -36.70637345	     -5.09818850	     -6.60614896	     37.33165526	     -9.01319812	     13.57503529	     83.64417316	     49.34208761	      0.00000000	      0.00000000	     48.32249860	    -25.16332383	     23.05584423	     76.96522677	     49.89662923	      0.00000000	      0.00000000
      5.01500000	    -37.02120661	      6.29283229	      8.57317540	      0.26677374	      1.04431585	     -0.17634109	      0.00000000	      0.50000000	      0.00000000	      0.25000000	     35.37570689	    -12.49899463	    -12.01748657	     14.52534992	      0.25351518	    -29.11029577	      4.60682283	      0.00000000	      0.00000000	     92.44176953	     -3.57877032	      0.96455396	    103.29124724	      1.80277235	     14.09832713	      2.30050207	      0.00000000	      0.00000000	    -36.74046397	     -4.63460541	     -6.88396734	     37.88222989	     -8.27605945	     13.45453475	     83.03640708	     49.23764077	      0.00000000	      0.00000000	     48.04089197	    -25.31864743	     22.68154901	     77.19850064	     49.90281691	      0.00000000	      0.00000000
      5.02000000	    -37.08910917	      5.97379150	      8.45501139	      0.26685016	      1.04686725	     -0.17733035	      0.00000000	      0.50000000	      0.00000000	      0.25000000	     35.10983567	    -12.20018282	    -12.14855296	     14.38212399	      0.25101542	    -29.81761986	      4.32216418	      0.00000000	      0.00000000	     92.20754911	     -3.51268776	      0.98362233	    102.10674313	      1.78209886	     14.33804863	      1.95561472	      0.00000000	      0.00000000	    -36.76628731	     -3.94377302	     -9.03967357	     40.54691319	     -4.89432975	     14.45333049	     78.06318487	     48.69603944	      0.00000000	      0.00000000	     44.94114120	    -27.60745760	     18.87261580	     80.40222590	     50.11050888	      0.00000000	      0.00000000
      5.02500000	    -37.22663835	      5.61678691	      8.29785143	      0.26691439	      1.04920998	     -0.17833974	      0.00000000	      0.50000000	      0.00000000	      0.25000000	     35.00887793	    -11.85296375	    -12.14530452	     14.41821434	      0.25164531	    -30.22080746	      4.21200590	      0.00000000	      0.00000000	     91.96728053	     -3.48323023	      1.03967959	    100.87281769	      1.76056279	     14.94282733	      1.54423499	      0.00000000	      0.00000000	    -36.87370563	     -3.58014093	     -8.94467061	     40.84485655	     -4.67996409	     14.58029830	     77.99129427	     48.71349013	      0.00000000	      0.00000000	     44.91370855	    -27.63355912	     18.76769733	     80.51783909	     50.11828008	      0.00000000	      0.00000000
      5.03000000	    -37.44002474	      5.34921253	      8.18329469	      0.26668736	      1.05140889	     -0.17980331	      0.00000000	      0.50000000	      0.00000000	      0.25000000	     35.12760125	    -11.67143465	    -12.02082273	     14.72230579	      0.25695271	    -30.51173014	      4.00434137	      0.00000000	      0.00000000	     91.74427010	     -3.32765137	      1.02178293	     99.54145733	      1.73732617	     15.45887869	      1.18007664	      0.00000000	      0.00000000	    -36.90412019	     -3.26008582	     -8.94215723	     41.16131270	     -4.42694209	     14.64589091	     77.85772234	     48.70657980	      0.00000000	      0.00000000	     44.87469335	    -27.64485791	     18.66697183	     80.61539493	     50.12440769	      0.00000000	      0.00000000
      5.03500000	    -37.75598783	      5.18265999	      7.98047079	      0.26625444	      1.05335529	     -0.18110782	      0.00000000	      0.50000000	      0.00000000	      0.25000000	     35.58429807	    -11.53297540	    -11.63177428	     15.42059092	      0.26914008	    -30.69879034	      3.23120739	      0.00000000	      0.00000000	     91.55272093	     -3.24430759	      0.87373105	     98.10489655	      1.71225346	     15.76127048	      0.46176817	      0.00000000	      0.00000000	    -36.78663173	     -2.99891945	     -9.24047762	     41.79582191	     -3.55447036	     15.09675065	     76.72105974	     48.59659243	      0.00000000	      0.00000000	     44.46465394	    -28.04270450	     18.06986892	     80.94070033	     50.12345842	      0.00000000	      0.00000000
      5.04000000	    -37.68763016	      4.76262796	      7.75769984	      0.26667714	      1.05564896	     -0.18211510	      0.00000000	      0.50000000	      0.00000000	      0.25000000	     35.47622816	    -11.06494130	    -11.37357093	     15.97937014	      0.27889262	    -30.54403191	      2.82060859	      0.00000000	      0.00000000	     90.93145455	     -3.30043247	      1.02793000	     96.72685920	      1.68820217	     16.55832046	      0.21444925	      0.00000000	      0.00000000	    -37.01982477	     -2.51748846	     -9.14438607	     42.27031393	     -3.10441000	     15.24545467	     76.40035393	     48.56649938	      0.00000000	      0.00000000	     44.35392416	    -28.13041868	     17.87372123	     81.13457984	     50.13819002	      0.00000000	      0.00000000
      5.04500000	    -37.64255016	      4.50300462	      7.50675576	      0.26696549	      1.05798026	     -0.18301932	      0.00000000	      0.50000000	      0.00000000	      0.25000000	     35.59331297	    -10.74437403	    -11.00036113	     16.88818488	      0.29475443	    -30.34768056	      1.95529087	      0.00000000	      0.00000000	     90.24947745	     -3.38850349	      1.01058252	     95.19461924	      1.66145954	     17.04453938	      0.13872352	      0.00000000	      0.00000000	    -37.36705030	     -2.19262446	     -9.22006008	     42.81119050	     -2.43436477	     15.41851720	     75.54256738	     48.45924610	      0.00000000	      0.00000000	     44.09394869	    -28.53289277	     17.40068508	     81.44716146	     50.14857400	      0.00000000	      0.00000000
      5.05000000	    -37.72998117	      4.29275676	      7.39528506	      0.26683296	      1.05996584	     -0.18467315	      0.00000000	      0.50000000	      0.00000000	      0.25000000	     36.00596795	    -10.66399959	    -10.67157975	     18.14609066	      0.31670903	    -29.82022524	      1.54232169	      0.00000000	      0.00000000	     89.69903683	     -3.21862511	      0.95115552	     93.60442066	      1.63370533	     17.31371538	     -0.38442353	      0.00000000	      0.00000000	    -37.28942434	     -1.60723787	    -10.96827392	     45.03756949	      0.06583150	     16.94892571	     70.59429916	     47.95306768	      0.00000000	      0.00000000	     41.71182752	    -30.44812165	     14.87829525	     83.53154382	     50.28484401	      0.00000000	      0.00000000
      5.05500000	    -37.65579562	      4.14434839	      7.24776354	      0.26679474	      1.06206821	     -0.18599064	      0.00000000	      0.50000000	      0.00000000	      0.25000000	     36.34847189	    -10.55886517	    -10.17792932	     19.59166761	      0.34193911	    -29.24030532	      0.67942627	      0.00000000	      0.00000000	     88.91030258	     -3.10665163	      0.87893941	     91.96052841	      1.60501400	     17.77716447	     -0.63435179	      0.00000000	      0.00000000	    -37.63289773	     -1.33317917	    -10.92797835	     45.35641572	      0.29477723	     17.03824831	     70.65483464	     47.98875149	      0.00000000	      0.00000000	     41.79795078	    -30.47520582	     14.69791459	     83.66074777	     50.28726047	      0.00000000	      0.00000000
      5.06000000	    -37.66090868	      4.21695295	      7.36712884	      0.26707134	      1.06413825	     -0.18720440	      0.00000000	      0.50000000	      0.00000000	      0.25000000	     36.82176587	    -10.83106558	     -9.80529138	     21.28595587	      0.37151001	    -28.46026434	     -0.03809374	      0.00000000	      0.00000000	     88.03175283	     -2.70230086	      0.56859003	     90.11147801	      1.57274199	     17.93921184	     -1.22688832	      0.00000000	      0.00000000	    -37.91297409	     -1.16996839	    -11.32618538	     45.50632559	      0.90417936	     16.76027153	     70.43065871	     47.83590565	      0.00000000	      0.00000000	     41.68603060	    -30.73193091	     14.21957614	     83.87651253	     50.09388547	      0.00000000	      0.00000000
      5.06500000	    -37.54887828	      3.91168660	      7.16306088	      0.26721615	      1.06587162	     -0.18870130	      0.00000000	      0.50000000	      0.00000000	      0.25000000	     37.30516961	    -10.58169742	     -9.35628608	     23.03654756	      0.40206360	    -27.79444398	     -0.87299573	      0.00000000	      0.00000000	     87.22199630	     -2.66095788	      0.68353442	     88.47447450	      1.54417088	     18.25402208	     -1.49268035	      0.00000000	      0.00000000	    -38.18180880	     -0.71390090	    -11.20982335	     45.99146257	      1.21943271	     16.75363515	     70.19926239	     47.81252268	      0.00000000	      0.00000000	     41.66544031	    -30.87611874	     14.12529821	     83.96327421	     50.10130392	      0.00000000	      0.00000000
